<svg xmlns="http://www.w3.org/2000/svg" viewBox="0 0 2000 2000"><g data-name="Metaverse education"><rect width="57.38" height="109.03" x="1356.39" y="227.51" fill="#e67925" transform="rotate(-175.6 1385.083 281.99)"/><path fill="#e67925" d="M1396.29,122.55a65.83,65.83,0,0,0-75,72.41l3.34,51.18c1.21,18.7,14.44,34.91,31,38.77a54.64,54.64,0,0,0,10.79,1.11c25.26-.14,43-23.74,53-36.93,1.69-2.24,3.57-4.89,5.52-7.93a65.78,65.78,0,0,0-28.65-118.61Z"/><path fill="#262246" d="M1364.78,245.42c-.21,0-7.9-1-8.11-1.06a4.78,4.78,0,0,1-3.84-6.42l7.86-20.83a2,2,0,1,1,3.74,1.41l-7.86,20.83a.78.78,0,0,0,.63,1l7.84,1.05A2,2,0,0,1,1364.78,245.42Z"/><path fill="#262246" d="M1344,206.63a5.59,5.59,0,1,0,4.72,6.35A5.59,5.59,0,0,0,1344,206.63Z"/><path fill="#262246" d="M1386,212.82a5.59,5.59,0,1,0,4.72,6.35A5.59,5.59,0,0,0,1386,212.82Z"/><path fill="#262246" d="M1384.82,194.66c-1.41.13-6.16.62-6.69,2.78a3.17,3.17,0,0,0,.94,2.52c2.63,2.66,7.21-1,13.28,0,7,1.12,10.72,7.61,11.83,6.69C1405.48,205.55,1401.12,193.07,1384.82,194.66Z"/><path fill="#262246" d="M1349.9,189.3c-1.53-.65-10.69-4.55-18,.44-2.48,1.7-4.6,4.36-4.08,5.16.78,1.21,6.24-3.88,13.29-2.84,6.09.9,9.36,5.77,12.65,4,.07,0,1.59-.86,1.67-2.13C1355.59,191.74,1351.2,189.85,1349.9,189.3Z"/><path fill="#68003c" d="M1356.7,287.72a2,2,0,0,1-1.62-2.33,2,2,0,0,1,2.33-1.61,39,39,0,0,0,35-11.29,2,2,0,0,1,2.88,2.78A43,43,0,0,1,1356.7,287.72Z"/><path fill="#2351fb" d="M1219.91,607.6l-34.46,59.2L775.93,641.31A109.13,109.13,0,0,0,670.5,703.58q-140.62,297.49-281.26,595l65.41,43.62a1834.24,1834.24,0,0,0,338.71-535,2324.69,2324.69,0,0,0,432.2,54.15q36.11-68.19,72.2-136.38V666.8Z"/><path fill="#2351fb" d="M1250.63,684.85l-89.25,144.4L984.94,1000.84a115.68,115.68,0,0,0-33.87,99.22l91.26,640.62,89.92-2.56a2134.4,2134.4,0,0,0-35.49-619.86l237.8-194.73A133.35,133.35,0,0,0,1383.3,815L1378,684.85Z"/><path fill="#e67925" d="M1379.3,310.48,1269,297.58a150.44,150.44,0,0,0-97,21.73L945.88,460.14l13.77,129.67,313.27-199.66Z"/><path fill="#e67925" d="M892,220.32l96.39,319c-2,36.92-33.17,63.4-64.26,60.82-24.9-2.07-47.17-22.56-52.78-50.49q-19.51-152.62-39-305.24Z"/><path fill="#e67925" d="M1394.64,316.73l69.83,18.7a100.34,100.34,0,0,1,73.92,87.25l29.44,303.67L1729.63,980l-41.31,44.75L1498.69,798.39a130.21,130.21,0,0,1-29.07-65.12l-46.32-323Z"/><path fill="#68003c" d="M468.37,1321.83q-17.73,79.45-35.45,158.92L112.65,1277.83c9.39-29.19,37.59-47.13,68.45-39.12A570.79,570.79,0,0,0,406,1268.05Z"/><path fill="#68003c" d="M1131,1706.44,1230,1842,855,1952c-16.21-27.14-10.93-61.18,16.27-79.63A588.15,588.15,0,0,0,1047,1718.14Z"/><path fill="#fdc500" d="M1379.3,310.48l-103.6-29.66a106.5,106.5,0,0,0-80.58,9l-165.57,90.9a221.23,221.23,0,0,0,73,132C1306.64,369.9,1244.94,415.3,1379.3,310.48Z"/><path fill="#fdc500" d="M1367.86,309.14l114,25.72a89.21,89.21,0,0,1,69,76.68l26.66,228.22-134,11-9-175Z"/><path fill="#2351fb" d="M663.73,717.91a3879.21,3879.21,0,0,1-274.49,421.18l137,140a1835,1835,0,0,0,286.67-492Z"/><path fill="#e67925" d="M440.07,1191l-43.25,77.57s18.73,5.81,25.73,38.15,40.69,38.08,40.69,38.08l58.7-70.12Z"/><path fill="#e67925" d="M1025.55,1618.42l8.52,116s12-11.7,43.48,5.3,62.19-21.37,62.19-21.37l8.49-101.06Z"/><path fill="#2351fb" d="M952.86,1112.62q16.35,254.57,32.69,509.14a254.6,254.6,0,0,0,191.34-16q-23.34-236.67-46.67-473.34l234.31-198.07a85.37,85.37,0,0,0,29.25-52.11l16.44-105.82-338.67,240Z"/><path fill="#fdc500" d="M1130.22,663.09c58.85-105.2,93.38-225.77,96-356l153.08,3.39,125,50.86a1627.64,1627.64,0,0,0-84.7,512.42c-10.41,5-68.81,31.66-134,6-11.76-4.63-61.31-24.14-82-71.34-19.52-44.53,2.7-77.09-22.66-112C1166.83,677.09,1146.06,667.88,1130.22,663.09Z"/><path fill="#e67925" d="M1354.52,303.39s-1.41,31.87,22.31,39.37S1411,318.87,1411,318.87,1388,280,1354.52,303.39Z"/><path fill="#68003c" d="M1130.22,1603.76a2,2,0,0,1-2-1.83l-43.33-496c-.14-1.58-15.17,12,221.35-191.69a2,2,0,0,1,2.61,3L1089,1106.61l43.24,495A2,2,0,0,1,1130.22,1603.76Z"/><path fill="#68003c" d="M1133.21,858.65a2,2,0,0,1-1.55-3.26l48.32-60a2,2,0,1,1,3.12,2.5C1131.06,862.51,1134.68,858.65,1133.21,858.65Z"/><path fill="#68003c" d="M496.89,1238.81a2,2,0,0,1-1.48-3.34A1502.89,1502.89,0,0,0,780.36,777a2,2,0,0,1,2.16-1.24l325.33,48.89a2,2,0,0,1-.59,4L783.5,780a1507,1507,0,0,1-285.13,458.19A2,2,0,0,1,496.89,1238.81Z"/><path fill="#fff" d="M415.55,1449.09c-.92,0,11.48,7.88-275.76-179.48a2,2,0,0,1,2.19-3.35l274.67,179.16A2,2,0,0,1,415.55,1449.09Z"/><path fill="#fff" d="M867.55,1930.76a2,2,0,0,1-.57-3.92l334-99.53a2,2,0,1,1,1.14,3.83C851.21,1935.72,868,1930.76,867.55,1930.76Z"/><path fill="#fff" d="M1122.16,1854.88a2,2,0,0,1-1.9-1.38c-.2-.6-19.15-61,35-92.8a2,2,0,1,1,2,3.45c-51.28,30.13-33.93,85.76-33.17,88.11A2,2,0,0,1,1122.16,1854.88Z"/><path fill="#fff" d="M354.85,1409.5a2,2,0,0,1-1.37-3.45c.32-.31,32.72-30.33,87.08-20.93a2,2,0,0,1-.68,3.94c-52.32-9-83.34,19.6-83.65,19.89A2,2,0,0,1,354.85,1409.5Z"/><path fill="#fff" d="M315.74,1304.44l-14.73-25a2.19,2.19,0,0,0-4.06.82l-2.75,20.81a6.19,6.19,0,0,1-11.6,2.11l-14.31-26.8a2.19,2.19,0,0,0-3.93.12l-6.27,13.8a6.18,6.18,0,0,1-11.45-.41l-10-26.94a2,2,0,1,1,3.75-1.39l10,27a2.2,2.2,0,0,0,4.06.14l6.27-13.8a6.19,6.19,0,0,1,11.1-.36l14.3,26.81a2.19,2.19,0,0,0,4.11-.75l2.75-20.81a6.2,6.2,0,0,1,11.48-2.33l14.73,25a2.19,2.19,0,0,0,4.06-.81L326,1282a6.2,6.2,0,0,1,11.31-2.54l13.06,19.82a2.19,2.19,0,0,0,4-1.36l-1.55-21.48a2,2,0,0,1,1.85-2.14,2,2,0,0,1,2.14,1.85l1.54,21.48a6.19,6.19,0,0,1-11.34,3.85L334,1281.62a2.2,2.2,0,0,0-4,.9l-2.77,19.64A6.19,6.19,0,0,1,315.74,1304.44Z"/><path fill="#fff" d="M958.93,1857.3c-1.73,0-.3.37-29-11.26a2,2,0,0,1,1.5-3.71l26.62,10.79a2.19,2.19,0,0,0,2.84-2.89l-6-13.94a6.19,6.19,0,0,1,7.22-8.44l29.44,7.5a2.2,2.2,0,0,0,2.22-3.54l-13.53-16a6.19,6.19,0,0,1,6-10l28.41,6a2.19,2.19,0,0,0,2.14-3.54l-12.64-15.29a6.19,6.19,0,0,1,5.74-10.06l23.44,3.71a2.19,2.19,0,0,0,1.7-3.89l-16.91-13.33a2,2,0,0,1,2.48-3.14l16.91,13.33a6.19,6.19,0,0,1-4.8,11l-23.45-3.71a2.19,2.19,0,0,0-2,3.56l12.64,15.29a6.2,6.2,0,0,1-6,10l-28.4-6a2.19,2.19,0,0,0-2.13,3.56l13.53,16a6.19,6.19,0,0,1-6.27,10l-29.44-7.49a2.19,2.19,0,0,0-2.56,3l6,13.93A6.21,6.21,0,0,1,958.93,1857.3Z"/><path fill="#68003c" d="M1414.67,230l5.33-35.51s-25.88-8.83-15.61-45.49c0,0-19.18-1.34-29,14s-47.68,8-47.68,8-7.55,8.81-6.78,19.7c0,0-29-30.87-3.74-51.37s19.49-33,50.62-40.5,53.91,23,53.91,23,48.65-4,50.94,45.52-58.23,106.52-58.23,106.52Z"/><path fill="#e67925" d="M1431.91,215c-6.59-4.79-16.47-2.42-22.08,5.3s-4.8,17.85,1.79,22.64,16.47,2.41,22.08-5.3S1438.5,219.8,1431.91,215Z"/><path fill="#262246" d="M1416.53,235.73a4.74,4.74,0,0,0,1.31-8.94,2,2,0,0,1,1.21-3.75l11,1.61a2,2,0,0,1-.59,4l-5.56-.82a8.69,8.69,0,0,1-6.59,11.87A2,2,0,0,1,1416.53,235.73Z"/><rect width="103.56" height="47.33" x="1308.15" y="187.04" fill="#fdc500" rx="9.13" transform="rotate(7.72 1360.287 210.753)"/><rect width="96.45" height="47.33" x="1301.61" y="185.92" fill="#2351fb" rx="9.13" transform="rotate(8.1 1396.182 203.37)"/><rect width="65.92" height="13.04" x="1401.63" y="199.99" fill="#fdc500" rx="4.75" transform="rotate(7 1435.56 206.693)"/><path fill="#262246" d="M1348,251.36l26.67-2.17a13.62,13.62,0,0,1-26.67,2.17Z"/><path fill="#e67925" d="M1681.5,1004.36c11.19,50.84,10.52,49,12.19,52.42l21.81,44.58a11.88,11.88,0,0,0,13.17,5c5.68-1.8,9.27-8.45,7.33-15l-12-38.5,37,25.5q-2.51,26.51-5,53a11.26,11.26,0,0,0,22,4.5q3.49-26,7-52l14.5,52a12.32,12.32,0,0,0,24-5.33l-15-60.42,31,49.75c3.65,8.88,13.69,11.66,19.5,8,4.69-2.95,6.87-10.25,4-17l-36.5-62,44,27.5a11.77,11.77,0,0,0,15-3.5c3.52-5.17,1.93-12.91-4-16.5-67.46-52.75-64.76-51.33-71.22-53.83l-88-34Z"/><path fill="#e67925" d="M841.5,253.36l-16.57-10.63a26.51,26.51,0,0,1-11.85-18L808,193.86l-15-8.75-19.5,8.25c-5,2.57-10.84,0-12.33-4.33-1.29-3.75.74-8.49,5.08-10.42l22-9.2a8.73,8.73,0,0,1,5.17-.48L813,173.11l-15.75-15-20.42-8.92c-4.5-3.53-5-9.74-2-13.16,2.28-2.6,6.42-3.44,10.17-1.92,22.35,8.52,23.55,8.49,26.33,11.52l16.92,18.48L823,137.86l-11.83-19.5A8.85,8.85,0,1,1,827,110.61q6.51,8.64,13,17.29c2,2.62,1.35,1.57,10.22,31.46l9.5-29.5,1.75-26.5a8.76,8.76,0,0,1,17.5,0q.63,14.74,1.25,29.5l-5.75,30.25,7,30.25,16.17-31c3.68-5.62,10.7-7.39,15.66-4.67A11.8,11.8,0,0,1,919,168.86Q911,187,903,205l-27,41.33Z"/><path fill="#68003c" d="M1212.93,437.49a2,2,0,0,1-2-2.34l17.74-101.8a2,2,0,1,1,3.94.69l-17.74,101.8A2,2,0,0,1,1212.93,437.49Z"/><path fill="#68003c" d="M1442.44,609.6a2,2,0,0,1-2-2.44l42.3-184a2,2,0,1,1,3.89.9l-42.29,184A2,2,0,0,1,1442.44,609.6Z"/><path fill="#68003c" d="M983.31,524.66a2,2,0,0,1-1.92-1.42L959.57,451a2,2,0,1,1,3.83-1.16l21.82,72.23A2,2,0,0,1,983.31,524.66Z"/><path fill="#68003c" d="M858.25,225.86a2,2,0,0,1-2-1.82c-1.24-13.66,6.28-26.19,19.63-31.47-17.89-24.6-47.76-12.4-55,13.82a2,2,0,0,1-3.86-1.06c5.21-19,21.82-31.84,38.65-30,14.44,1.63,22.78,13.58,25,17.2a2,2,0,0,1-1.14,3c-12.27,3.64-20.54,14.87-19.33,28.15A2,2,0,0,1,858.25,225.86Z"/><path fill="#68003c" d="M1523.33,742.36a2,2,0,0,1-.6-3.91l44.5-14a2,2,0,1,1,1.2,3.82C1520.82,743.25,1523.81,742.36,1523.33,742.36Z"/><path fill="#fdc500" d="M328.9,316.94H547.48a0,0,0,0,1,0,0V654.27a0,0,0,0,1,0,0H330.57a38.72,38.72,0,0,1-38.72-38.72V354A37.05,37.05,0,0,1,328.9,316.94Z" transform="rotate(-21.03 419.729 485.645)"/><path fill="#fff" d="M595.05,585.58l-195.32,75.1a18.08,18.08,0,0,1-23.36-10.39,21.4,21.4,0,0,1,12.3-27.66l192.2-73.91Z"/><rect width="157.38" height="76.15" x="324.44" y="339.96" fill="#fff" transform="rotate(-21.03 403.19 378.077)"/><path fill="#68003c" d="M368.49,608.21a2,2,0,0,1-1.87-1.28L277,374a2,2,0,1,1,3.74-1.44l89.58,233A2,2,0,0,1,368.49,608.21Z"/><path fill="#2351fb" d="M1472.75,170.49a385.09,385.09,0,0,1-152.51-33.11L1332,83.28l152.51,33.12Z"/><path fill="#2351fb" d="M1330.07,93.91l-66.86-41.25,170.31-4.77,134.57,74.87-90.09,4.6Z"/><path fill="#68003c" d="M1329.5,95.59a2,2,0,1,1,2-3.46l69.14,40.15,79.71-5.91a2,2,0,0,1,.3,4l-80.33,5.95C1399.36,136.38,1403.58,138.61,1329.5,95.59Z"/><path fill="#2351fb" d="M1227.71,122.9c25.52-3.82,14-54.81,23-66.27,7.41-9.48,20.21-7,25.95-4.33a2,2,0,0,1-1.68,3.64c-.56-.26-13.81-6.18-21.11,3.15-7.82,10,4,63.34-25.52,67.76A2,2,0,0,1,1227.71,122.9Z"/><path fill="#2351fb" d="M1239.66,133.83l-9.42-.27L1213,155A31.1,31.1,0,0,1,1199.09,120l27.6,2.67,8-9A25,25,0,0,1,1239.66,133.83Z"/><path fill="#2351fb" d="M1614.83,340.62q2.22-42.64,4.45-85.28l51.56,70.23,97.32,362.22c2.59,16.42-8.4,31.65-23.48,34.33-13.39,2.39-27.38-5.58-32.54-19.28Z"/><path fill="#fdc500" d="M1741.15,676.06h5.4a25.6,25.6,0,0,1,25.6,25.6v35.23a0,0,0,0,1,0,0h-58a0,0,0,0,1,0,0V703.06A27,27,0,0,1,1741.15,676.06Z" transform="rotate(164.96 1743.14 706.502)"/><rect width="58" height="21.03" x="1705.22" y="662.72" fill="#e67925" transform="rotate(164.96 1734.208 673.27)"/><rect width="16.35" height="318.83" x="1677.68" y="332.35" fill="#fdc500" transform="rotate(164.96 1685.856 491.797)"/><rect width="10.84" height="31.98" x="1615.07" y="243.08" fill="#68003c" rx="5.42" transform="rotate(164.96 1620.484 259.09)"/><rect width="157.61" height="80.53" x="1347.44" y="1516.94" fill="#fdc500" transform="rotate(13.06 1425.972 1556.816)"/><rect width="37.92" height="193.82" x="1437.55" y="1329.8" fill="#fdc500" transform="rotate(13.06 1456.22 1426.346)"/><path fill="#fdc500" d="M1496.49,1418.23l-75.2-17.45a72.08,72.08,0,0,1-53-90.29l46.28-159.64,201.1,46.64L1587.58,1358A75.24,75.24,0,0,1,1496.49,1418.23Z"/><polygon fill="#fdc500" points="1490.81 1557.32 1368.22 1528.89 1398.24 1454.47 1496.61 1477.29 1490.81 1557.32"/><path fill="#fdc500" d="M1386.36,1358.07l-29.9-6.94c-40.46-9.38-68.63-46.32-65.54-85.92l4.87-62.45c1.42-18.06,19-30.52,37.2-26.29l90.61,21c16.45,3.82,26.82,19.9,23.12,35.85l-23.83,102.72C1419.19,1352,1402.8,1361.88,1386.36,1358.07ZM1327,1202.21c-2.15-.5-4.72.52-4.88,2.6l-4.88,62.45c-2.08,26.69,17.34,51.68,45.17,58.13l29.9,6.94c2.21.51,4.42-.52,4.82-2.25L1421,1227.36c.41-1.73-1.13-3.62-3.34-4.13Z"/><path fill="#fdc500" d="M1584.09,1403.92l-29.9-6.93c-16.45-3.81-26.82-19.9-23.12-35.85l23.82-102.72c3.7-16,20.09-25.83,36.54-22l90.62,21c18.21,4.23,28.5,23.14,21.82,40l-23.11,58.22C1666.1,1392.54,1624.54,1413.31,1584.09,1403.92Zm1.37-141.77c-2.21-.52-4.42.51-4.82,2.24l-23.83,102.72c-.4,1.73,1.13,3.62,3.35,4.14l29.9,6.93c27.83,6.46,56.26-7.44,66.14-32.31l23.11-58.22c.78-2-1.11-4-3.23-4.49Z"/><polygon fill="#fff" points="1494.72 1261.97 1533.2 1251.89 1517.79 1288.57 1539.27 1322.05 1499.63 1318.73 1474.42 1349.5 1465.33 1310.77 1428.27 1296.31 1462.29 1275.69 1464.6 1235.98 1494.72 1261.97"/></g></svg>
